<svg width="445" height="244" viewBox="0 0 445 244" fill="none" xmlns="http://www.w3.org/2000/svg">
<path fill-rule="evenodd" clip-rule="evenodd" d="M342.795 87.601C338.481 38.5003 297.551 0 247.695 0C210.994 0 179.131 20.8626 163.149 51.4587C158.353 50.5347 153.402 50.0511 148.338 50.0511C105.04 50.0511 69.9394 85.4147 69.9394 129.038C69.9394 129.101 69.9395 129.164 69.9396 129.227C66.6751 128.59 63.3011 128.256 59.8485 128.256C31.1258 128.256 0.855469 147.025 0.855469 179.871C0.855469 202.749 22.8392 222.151 43.6093 228.92C77.7016 240.032 139.8 243.888 220.527 243.999C301.254 244.11 384.162 234.658 397.506 230.704C423.897 222.884 444.855 204.158 444.855 179.089C444.855 154.383 421.933 134.514 398.571 129.446C391.956 105.312 370.005 87.5894 343.946 87.5894C343.562 87.5894 343.178 87.5932 342.795 87.601Z" fill="#91D9FF"/>
</svg>
