<svg width="203" height="112" viewBox="0 0 203 112" fill="none" xmlns="http://www.w3.org/2000/svg">
<path fill-rule="evenodd" clip-rule="evenodd" d="M156.337 40.2103C154.365 17.6723 135.651 0 112.857 0C96.077 0 81.5087 9.57626 74.2019 23.6204C72.009 23.1963 69.7452 22.9743 67.4301 22.9743C47.6338 22.9743 31.5857 39.2068 31.5857 59.2305C31.5857 59.2595 31.5857 59.2884 31.5858 59.3173C30.0932 59.0248 28.5506 58.8716 26.972 58.8716C13.8398 58.8716 0 67.4869 0 82.5638C0 93.0652 10.0511 101.971 19.5474 105.078C35.1346 110.178 63.5262 111.949 100.435 112C137.344 112.05 175.25 107.712 181.351 105.897C193.418 102.307 203 93.7119 203 82.2048C203 70.8646 192.52 61.7442 181.839 59.418C178.814 48.3399 168.778 40.205 156.864 40.205C156.688 40.205 156.512 40.2067 156.337 40.2103Z" fill="#91D9FF"/>
</svg>
