<svg width="134" height="74" viewBox="0 0 134 74" fill="none" xmlns="http://www.w3.org/2000/svg">
<path fill-rule="evenodd" clip-rule="evenodd" d="M103.198 26.5675C101.896 11.6763 89.5431 0 74.4965 0C63.4203 0 53.8037 6.32717 48.9806 15.6063C47.5331 15.3261 46.0387 15.1794 44.5105 15.1794C31.443 15.1794 20.8496 25.9045 20.8496 39.1345C20.8496 39.1536 20.8497 39.1727 20.8497 39.1918C19.8645 38.9986 18.8462 38.8973 17.8042 38.8973C9.13564 38.8973 0 44.5896 0 54.5511C0 61.4895 6.63474 67.3736 12.9032 69.4266C23.1923 72.7964 41.9336 73.9661 66.2972 73.9997C90.6608 74.0333 115.682 71.1669 119.71 69.9677C127.675 67.5959 134 61.9168 134 54.3139C134 46.8212 127.082 40.7953 120.031 39.2583C118.035 31.9389 111.41 26.564 103.545 26.564C103.429 26.564 103.313 26.5652 103.198 26.5675Z" fill="#91D9FF"/>
</svg>
