<svg width="80" height="46" viewBox="0 0 80 46" fill="none" xmlns="http://www.w3.org/2000/svg">
<path fill-rule="evenodd" clip-rule="evenodd" d="M60.6159 15.7697C59.3636 6.97099 51.7107 0.438562 42.8534 0.925512C36.3332 1.28397 30.8788 5.35162 28.3425 11.0167C27.4812 10.8972 26.5967 10.8585 25.6971 10.9079C18.0048 11.3308 12.1189 18.0411 12.5508 25.8957C12.5514 25.9071 12.552 25.9184 12.5527 25.9297C11.9664 25.8469 11.3637 25.8198 10.7503 25.8535C5.64741 26.134 0.455385 29.8092 0.780524 35.7233C1.00699 39.8426 5.10467 43.1213 8.86169 44.1373C15.0285 45.805 26.099 45.8929 40.442 45.1243C54.7851 44.3558 69.4209 41.8443 71.7525 41.002C76.3638 39.3361 79.9018 35.7597 79.6537 31.2459C79.4091 26.7975 75.14 23.4438 70.9394 22.7595C69.5252 18.4785 65.4501 15.5019 60.8204 15.7564C60.7521 15.7602 60.6839 15.7646 60.6159 15.7697Z" fill="#91D9FF"/>
</svg>
