<svg width="132" height="75" viewBox="0 0 132 75" fill="none" xmlns="http://www.w3.org/2000/svg">
<path fill-rule="evenodd" clip-rule="evenodd" d="M30.7396 27.0673C32.167 12.3088 44.4217 0.848374 59.2071 0.996763C70.091 1.106 79.4776 7.47706 84.1246 16.7291C85.5498 16.4654 87.0197 16.3346 88.5214 16.3497C101.362 16.4786 111.665 27.2217 111.533 40.3452C111.533 40.3641 111.533 40.3831 111.532 40.402C112.502 40.2201 113.504 40.1297 114.528 40.1399C123.046 40.2254 131.966 45.962 131.867 55.8433C131.798 62.7259 125.22 68.4972 119.04 70.4718C108.896 73.713 90.4683 74.6884 66.5273 74.4815C42.5864 74.2745 18.0277 71.1845 14.0823 69.9552C6.27914 67.5239 0.120328 61.8282 0.196018 54.2865C0.27061 46.8542 7.12863 40.9449 14.072 39.4899C16.1068 32.2491 22.67 26.9828 30.3981 27.0604C30.5122 27.0615 30.626 27.0638 30.7396 27.0673Z" fill="#DBF2FF"/>
</svg>
