<svg width="737" height="456" viewBox="0 0 737 456" fill="none" xmlns="http://www.w3.org/2000/svg">
<path d="M252.078 366.902C470.686 366.902 647.902 189.686 647.902 -28.9215C647.902 -247.529 470.686 -424.745 252.078 -424.745C33.4714 -424.745 -143.745 -247.529 -143.745 -28.9215C-143.745 189.686 33.4714 366.902 252.078 366.902Z" fill="#FFEA7B"/>
<path d="M671.842 46.7562C672.648 42.2873 676.925 39.3183 681.4 40.1241L722.773 47.5869C727.242 48.3927 730.211 52.6694 729.406 57.1446C728.6 61.6136 724.323 64.5826 719.848 63.7768L678.474 56.314C674.005 55.5083 671.03 51.2314 671.842 46.7562Z" fill="#FFEA7B"/>
<path d="M654.821 111.503C656.315 107.214 661.007 104.952 665.296 106.446L704.99 120.292C709.279 121.786 711.542 126.478 710.048 130.768C708.554 135.057 703.862 137.319 699.573 135.825L659.879 121.978C655.59 120.485 653.321 115.793 654.821 111.503Z" fill="#FFEA7B"/>
<path d="M627.883 172.785C630.034 168.781 635.017 167.281 639.021 169.426L676.062 189.31C680.067 191.461 681.566 196.444 679.422 200.448C677.271 204.453 672.288 205.953 668.284 203.808L631.243 183.924C627.232 181.779 625.732 176.79 627.883 172.785Z" fill="#FFEA7B"/>
<path d="M591.685 229.103C594.431 225.483 599.594 224.783 603.208 227.529L636.679 252.96C640.299 255.706 640.999 260.869 638.253 264.483C635.507 268.103 630.344 268.803 626.73 266.057L593.26 240.626C589.64 237.88 588.939 232.723 591.685 229.103Z" fill="#FFEA7B"/>
<path d="M547.126 279.067C550.405 275.925 555.611 276.036 558.754 279.315L587.836 309.674C590.979 312.953 590.867 318.16 587.588 321.302C584.309 324.445 579.103 324.333 575.96 321.054L546.878 290.695C543.735 287.416 543.847 282.21 547.126 279.067Z" fill="#FFEA7B"/>
<path d="M495.302 321.439C499.034 318.848 504.16 319.771 506.75 323.503L530.725 358.034C533.316 361.765 532.393 366.891 528.661 369.482C524.93 372.073 519.804 371.149 517.213 367.418L493.238 332.887C490.647 329.156 491.571 324.03 495.302 321.439Z" fill="#FFEA7B"/>
<path d="M437.484 355.189C441.575 353.211 446.49 354.928 448.467 359.019L466.746 396.878C468.724 400.969 467.007 405.885 462.916 407.862C458.825 409.839 453.91 408.122 451.932 404.031L433.654 366.172C431.676 362.081 433.393 357.16 437.484 355.189Z" fill="#FFEA7B"/>
<path d="M375.104 379.473C379.455 378.166 384.042 380.626 385.35 384.978L397.48 425.229C398.788 429.58 396.327 434.167 391.976 435.475C387.625 436.783 383.038 434.322 381.73 429.971L369.6 389.719C368.286 385.374 370.753 380.781 375.104 379.473Z" fill="#FFEA7B"/>
<path d="M309.688 393.699C314.188 393.086 318.335 396.235 318.948 400.735L324.632 442.387C325.246 446.887 322.097 451.034 317.597 451.647C313.097 452.261 308.95 449.112 308.337 444.612L302.653 402.96C302.033 398.46 305.188 394.313 309.688 393.699Z" fill="#FFEA7B"/>
<path d="M242.851 397.523C247.395 397.623 250.996 401.379 250.897 405.922L249.998 447.953C249.899 452.496 246.143 456.097 241.599 455.998C237.056 455.899 233.455 452.143 233.554 447.6L234.453 405.569C234.552 401.026 238.308 397.424 242.851 397.523Z" fill="#FFEA7B"/>
<path d="M176.238 390.841C180.707 391.647 183.676 395.924 182.87 400.399L175.408 441.772C174.602 446.241 170.325 449.21 165.85 448.405C161.381 447.599 158.412 443.322 159.218 438.847L166.68 397.473C167.492 393.004 171.769 390.029 176.238 390.841Z" fill="#FFEA7B"/>
<path d="M111.497 373.821C115.786 375.315 118.048 380.007 116.554 384.296L102.707 423.99C101.214 428.279 96.5215 430.542 92.2323 429.048C87.9431 427.554 85.6807 422.862 87.1745 418.573L101.022 378.879C102.515 374.59 107.207 372.321 111.497 373.821Z" fill="#FFEA7B"/>
<path d="M50.2141 346.883C54.2182 349.034 55.7181 354.017 53.5735 358.021L33.6894 395.062C31.5386 399.067 26.5552 400.566 22.5511 398.422C18.547 396.271 17.047 391.288 19.1916 387.284L39.0757 350.243C41.2203 346.232 46.21 344.732 50.2141 346.883Z" fill="#FFEA7B"/>
</svg>
